<?xml version="1.0" standalone="no"?><!DOCTYPE svg PUBLIC "-//W3C//DTD SVG 1.1//EN" "http://www.w3.org/Graphics/SVG/1.1/DTD/svg11.dtd"><svg t="1698743428661" class="icon" viewBox="0 0 1024 1024" version="1.1" xmlns="http://www.w3.org/2000/svg" p-id="1215" data-spm-anchor-id="a313x.collections_detail.0.i3.6a8e3a81gaZGME" xmlns:xlink="http://www.w3.org/1999/xlink" width="200" height="200"><path d="M512 0c43.885714 0 73.142857 29.257143 73.142857 73.142857s-29.257143 73.142857-73.142857 73.142857-73.142857-29.257143-73.142857-73.142857 29.257143-73.142857 73.142857-73.142857z" fill="#ffffff" p-id="1216"></path><path d="M877.714286 877.714286H146.285714V438.857143c0-204.8 160.914286-365.714286 365.714286-365.714286s365.714286 160.914286 365.714286 365.714286v438.857143z m-658.285715-73.142857h585.142858V438.857143c0-160.914286-131.657143-292.571429-292.571429-292.571429S219.428571 277.942857 219.428571 438.857143v365.714286z" fill="#ffffff" p-id="1217" data-spm-anchor-id="a313x.collections_detail.0.i2.6a8e3a81gaZGME" class=""></path><path d="M36.571429 804.571429h950.857142c21.942857 0 36.571429 14.628571 36.571429 36.571428s-14.628571 36.571429-36.571429 36.571429H36.571429c-21.942857 0-36.571429-14.628571-36.571429-36.571429s14.628571-36.571429 36.571429-36.571428zM512 1024c58.514286 0 109.714286-21.942857 146.285714-73.142857H365.714286c36.571429 51.2 87.771429 73.142857 146.285714 73.142857z" fill="#ffffff" p-id="1218" data-spm-anchor-id="a313x.collections_detail.0.i4.6a8e3a81gaZGME" class=""></path><path d="M841.142857 256m-109.714286 0a109.714286 109.714286 0 1 0 219.428572 0 109.714286 109.714286 0 1 0-219.428572 0Z" fill="red" p-id="1219"></path><path d="M841.142857 402.285714c-80.457143 0-146.285714-65.828571-146.285714-146.285714s65.828571-146.285714 146.285714-146.285714 146.285714 65.828571 146.285714 146.285714-65.828571 146.285714-146.285714 146.285714z m0-219.428571c-43.885714 0-73.142857 29.257143-73.142857 73.142857s29.257143 73.142857 73.142857 73.142857 73.142857-29.257143 73.142857-73.142857-29.257143-73.142857-73.142857-73.142857z" fill="red" p-id="1220"></path></svg>